<?xml version="1.0" standalone="no"?>
<!DOCTYPE svg PUBLIC "-//W3C//DTD SVG 20010904//EN"
 "http://www.w3.org/TR/2001/REC-SVG-20010904/DTD/svg10.dtd">
<svg version="1.0" xmlns="http://www.w3.org/2000/svg"
 width="500.000000pt" height="500.000000pt" viewBox="0 0 500.000000 500.000000"
 preserveAspectRatio="xMidYMid meet">
<metadata>
Created by potrace 1.14, written by Peter Selinger 2001-2017
</metadata>
<g transform="translate(0.000000,500.000000) scale(0.100000,-0.100000)"
fill="#000000" stroke="none">
<path d="M2973 4763 c-32 -4 -33 -5 -28 -50 2 -25 -1 -55 -7 -66 -7 -14 -7
-22 1 -27 7 -3 9 -14 5 -23 -5 -15 -8 -14 -24 6 -10 12 -26 22 -37 22 -27 0
-30 58 -4 84 27 27 26 29 -4 26 -14 -2 -25 1 -25 6 0 5 -10 4 -22 -2 -21 -11
-21 -13 -4 -19 19 -6 19 -7 0 -21 -11 -8 -23 -22 -27 -33 -6 -14 -10 -16 -21
-7 -14 12 -37 -7 -49 -42 -9 -25 -29 -10 -21 15 4 14 2 18 -5 14 -6 -4 -11
-15 -11 -25 0 -10 -9 -21 -19 -24 -12 -3 -21 -15 -23 -33 -2 -17 -9 -29 -18
-29 -8 -1 -14 -6 -12 -13 1 -7 -5 -28 -13 -48 -12 -30 -18 -34 -37 -29 -17 5
-19 4 -8 -4 18 -12 9 -24 -13 -15 -14 5 -12 13 11 62 15 32 32 61 39 65 20 13
37 88 22 98 -10 6 -10 11 2 25 13 16 12 16 -11 4 -14 -7 -40 -24 -57 -38 l-33
-24 0 23 c-1 22 -2 23 -14 7 -20 -26 -28 -22 -21 11 3 17 2 32 -4 36 -6 3 -11
16 -11 28 -1 22 -1 22 -15 3 -19 -25 -19 -37 0 -30 8 4 15 1 15 -5 0 -6 -4
-11 -10 -11 -6 0 -9 -3 -8 -7 1 -5 -4 -32 -11 -62 -8 -31 -11 -76 -8 -109 6
-54 -4 -92 -24 -92 -5 0 -8 12 -7 28 2 17 -1 26 -9 24 -8 -1 -13 9 -13 25 0
19 3 24 9 15 11 -17 21 7 21 49 0 20 -4 27 -14 23 -8 -3 -12 -13 -9 -24 4 -15
-2 -22 -22 -30 -23 -9 -25 -13 -15 -25 7 -8 8 -15 3 -15 -6 0 -9 -18 -7 -41 2
-23 -1 -49 -6 -58 -7 -13 -10 -9 -11 17 -1 17 -3 37 -4 42 -1 6 -3 17 -4 25
-2 24 -41 19 -41 -5 0 -11 -4 -20 -10 -20 -5 0 -10 11 -10 24 0 14 -4 28 -10
31 -6 4 -10 -5 -10 -20 0 -19 -4 -26 -14 -22 -16 6 -26 -12 -26 -48 0 -26 -24
-50 -40 -40 -5 3 -10 12 -10 20 0 22 -31 48 -43 36 -21 -21 -24 -10 -20 70 2
53 0 78 -7 74 -5 -3 -10 -10 -10 -16 0 -5 -13 -22 -30 -37 -16 -16 -30 -34
-30 -41 0 -6 -6 -14 -14 -17 -39 -15 -55 -94 -19 -94 8 0 12 -4 8 -10 -3 -5
-15 -6 -28 -1 -41 15 -63 -11 -34 -41 16 -16 37 -53 37 -65 -1 -4 -9 2 -20 15
-12 15 -28 22 -42 20 -18 -2 -25 -13 -35 -53 -6 -27 -12 -65 -12 -82 -1 -38
-13 -43 -29 -10 -8 16 -11 18 -11 6 -1 -9 -8 -19 -16 -23 -8 -3 -12 -12 -9
-21 3 -8 1 -15 -5 -15 -6 0 -11 9 -11 20 0 12 -7 20 -16 20 -14 0 -16 -7 -11
-45 6 -42 -4 -67 -18 -45 -3 5 -1 10 4 10 6 0 11 4 11 9 0 4 -13 8 -30 7 -30
-1 -44 -16 -15 -16 8 0 15 -4 15 -10 0 -5 -9 -10 -20 -10 -11 0 -20 -5 -20
-11 0 -8 15 -10 48 -6 43 5 84 -4 72 -17 -9 -8 -150 -14 -155 -5 -3 4 3 12 12
18 17 10 17 10 -2 10 -11 0 -31 -9 -44 -20 -21 -17 -22 -22 -10 -30 10 -6 10
-9 2 -9 -7 0 -13 -8 -13 -17 0 -14 -2 -15 -9 -4 -9 14 -31 7 -31 -10 0 -6 -10
-19 -22 -30 -19 -15 -20 -18 -7 -19 24 0 41 -50 18 -50 -7 0 -18 -8 -26 -17
-9 -11 -12 -12 -7 -3 4 8 3 11 -1 7 -5 -4 -11 -15 -13 -25 -6 -28 -11 -148 -6
-132 12 35 28 59 35 54 5 -2 16 10 25 27 14 28 18 30 26 16 8 -15 14 -12 51
23 49 47 73 53 52 14 -7 -14 -23 -32 -34 -41 -12 -8 -19 -19 -16 -24 4 -5 2
-9 -4 -9 -12 0 -71 -86 -71 -104 0 -8 -6 -19 -14 -25 -16 -13 -31 -91 -27
-137 1 -18 -2 -35 -8 -39 -13 -8 -14 -52 -2 -59 5 -4 11 -1 13 6 3 9 6 9 12 0
4 -6 -1 -16 -12 -23 -18 -12 -18 -13 -1 -30 12 -12 16 -25 12 -36 -7 -17 -8
-17 -11 0 -7 33 -42 9 -42 -29 0 -13 -4 -26 -10 -29 -5 -3 -10 -26 -10 -50 0
-24 -4 -46 -8 -49 -16 -10 -13 -96 4 -122 9 -13 19 -22 22 -20 2 3 12 1 22 -4
21 -11 35 -54 16 -47 -10 4 -12 -12 -9 -71 5 -93 7 -102 31 -102 21 0 52 29
52 49 0 7 9 33 21 59 22 52 95 117 131 117 11 0 26 8 32 18 14 23 -8 38 -46
32 -26 -5 -27 -4 -18 20 20 54 51 105 60 100 5 -3 16 -30 25 -60 13 -48 18
-54 33 -46 10 5 26 9 37 8 12 -1 21 5 23 18 8 38 40 100 64 120 54 48 120 65
254 65 89 0 135 -5 209 -25 53 -13 106 -30 118 -36 31 -16 87 -71 87 -85 0 -6
6 -17 14 -23 9 -7 13 -31 12 -66 0 -30 2 -55 7 -55 4 0 7 7 7 15 0 8 5 15 11
15 22 0 2 -90 -39 -173 -97 -196 -290 -295 -493 -252 -85 17 -104 18 -69 3 23
-10 23 -11 6 -16 -18 -4 -18 -5 5 -18 13 -7 18 -13 12 -14 -26 0 -12 -17 15
-18 44 -1 107 -14 112 -22 8 -12 95 -17 93 -5 -1 6 15 9 38 7 33 -4 40 -1 48
19 7 18 10 19 10 7 1 -22 21 -24 21 -3 0 8 5 15 10 15 6 0 10 -5 10 -11 0 -5
5 -7 11 -4 6 4 8 13 5 21 -3 8 1 17 9 20 8 4 15 12 15 20 0 7 16 21 35 30 19
9 33 19 30 23 -2 4 7 19 21 34 13 14 24 33 24 42 0 9 10 35 23 58 12 23 36 73
52 111 33 80 95 163 132 177 31 12 86 2 80 -14 -2 -7 7 -37 21 -67 14 -30 26
-71 27 -90 1 -19 6 -51 10 -70 6 -29 5 -33 -6 -22 -20 19 -27 15 -38 -25 -11
-37 -6 -58 10 -48 5 4 9 1 9 -4 0 -6 -9 -11 -20 -11 -15 0 -20 -7 -20 -25 0
-15 6 -25 14 -25 18 0 30 -61 15 -71 -7 -4 -9 -14 -6 -24 4 -9 11 -13 17 -10
6 4 10 -5 10 -20 0 -18 8 -29 25 -37 19 -8 22 -14 13 -20 -10 -6 -8 -8 5 -8
14 0 16 -5 11 -27 -6 -21 -4 -25 9 -20 22 8 36 -13 43 -67 6 -41 5 -46 -12
-46 -13 0 -24 11 -31 30 -6 17 -18 30 -27 30 -16 0 -72 52 -79 73 -3 9 -13 9
-39 -1 -32 -11 -43 -10 -90 8 -64 24 -62 24 -54 4 5 -13 1 -14 -25 -9 -28 6
-30 5 -25 -13 4 -11 2 -23 -4 -27 -6 -4 -10 4 -10 19 0 21 -5 26 -26 26 -15 0
-23 -4 -19 -10 8 -13 -82 -100 -102 -100 -19 0 -13 68 9 105 38 63 14 61 -52
-4 -28 -27 -50 -58 -50 -68 0 -10 -11 -30 -25 -45 -14 -15 -25 -30 -25 -33 0
-4 -13 -25 -29 -48 -15 -23 -32 -52 -35 -65 -4 -13 -23 -39 -42 -57 -19 -19
-32 -35 -30 -35 3 0 -7 -12 -21 -26 l-26 -26 24 -19 24 -19 -25 -20 c-20 -16
-22 -22 -11 -29 8 -5 10 -14 5 -22 -5 -8 -9 -21 -11 -29 -1 -8 -9 -19 -17 -26
-23 -16 -36 -60 -42 -138 -3 -46 -10 -75 -19 -82 -18 -13 -20 -35 -4 -32 6 2
14 -3 16 -11 4 -9 0 -11 -16 -6 -12 4 -21 2 -21 -4 0 -6 16 -11 35 -11 29 0
35 -4 35 -20 0 -11 -7 -23 -15 -26 -16 -7 -21 -34 -6 -34 6 0 6 -12 1 -29 -9
-34 3 -51 37 -51 21 0 22 -2 11 -20 -16 -25 -28 -25 -35 0 -4 16 -13 20 -47
19 -22 -1 -33 -3 -23 -6 15 -4 16 -7 6 -20 -10 -12 -10 -16 2 -24 11 -7 9 -9
-8 -9 -25 0 -40 -16 -21 -22 9 -3 8 -10 -5 -23 -11 -11 -17 -27 -14 -41 7 -37
-22 -33 -65 8 -21 20 -48 40 -61 44 l-22 8 25 7 25 7 -27 1 c-34 1 -59 -9 -52
-20 3 -5 -1 -9 -9 -9 -19 0 -107 111 -107 136 0 26 -22 57 -43 60 -13 2 -16
-6 -14 -37 1 -21 4 -39 7 -39 4 0 11 -38 18 -84 7 -47 19 -103 27 -127 8 -23
15 -52 15 -65 0 -13 4 -24 9 -24 10 0 46 -55 77 -120 12 -25 29 -52 38 -59 14
-12 15 -16 2 -30 -16 -17 -11 -71 6 -71 6 0 5 -6 -2 -15 -7 -8 -9 -23 -4 -37
4 -13 6 -39 5 -59 -2 -29 3 -39 23 -53 28 -18 37 -66 12 -66 -15 0 -60 -39
-69 -61 -4 -8 -4 1 -1 18 3 21 1 33 -5 33 -6 0 -11 -7 -11 -15 0 -8 -7 -15
-16 -15 -23 0 -55 20 -49 31 4 5 -2 9 -13 9 -11 0 -34 24 -63 67 -38 58 -44
75 -46 126 -1 33 -4 62 -7 64 -7 7 -76 -45 -76 -57 0 -5 -6 -15 -13 -22 -35
-38 -66 -93 -57 -103 6 -8 4 -18 -6 -31 -14 -18 -15 -18 -10 6 4 14 -3 6 -14
-17 -14 -31 -25 -43 -40 -43 -12 0 -19 -4 -16 -9 3 -5 -9 -11 -26 -15 -18 -4
-34 -2 -38 4 -6 10 -108 -38 -141 -66 -8 -8 -21 -14 -27 -14 -7 0 -12 -5 -12
-11 0 -5 -4 -7 -10 -4 -5 3 -20 0 -32 -7 -13 -6 -28 -13 -33 -14 -22 -3 -75
-41 -96 -67 -24 -31 -70 -57 -149 -82 -30 -10 -61 -22 -67 -28 -7 -5 -13 -6
-13 -2 0 4 -7 1 -17 -6 -9 -8 -19 -13 -22 -12 -15 5 -81 -21 -70 -28 16 -10
-57 -30 -78 -22 -10 4 -14 2 -10 -4 9 -15 -54 -36 -78 -27 -14 6 -16 4 -10 -6
5 -8 4 -11 -2 -7 -13 8 -125 -31 -139 -49 -12 -15 -29 -20 -20 -5 3 4 -12 3
-34 -2 -21 -6 -37 -14 -35 -17 3 -4 -7 -5 -22 -2 -19 4 -24 2 -18 -8 5 -9 4
-11 -4 -6 -6 4 -21 4 -32 1 -16 -5 -18 -9 -9 -15 8 -5 0 -12 -23 -19 -19 -7
-37 -18 -40 -25 -4 -10 19 -13 99 -15 68 -2 104 1 104 8 0 6 8 11 18 11 13 0
14 -2 4 -9 -29 -18 189 -21 1460 -21 1018 0 1318 3 1318 12 0 9 3 9 12 0 15
-15 748 -18 748 -2 0 5 16 17 36 26 32 15 34 19 20 29 -16 12 -16 25 -1 72 9
28 25 21 24 -10 0 -12 4 -38 9 -57 l9 -35 8 35 c7 30 9 32 15 15 11 -29 2 -43
-36 -57 -48 -17 -42 -28 16 -28 33 0 50 4 50 13 0 9 2 9 8 0 5 -8 32 -12 72
-11 36 1 54 3 41 6 -13 2 -26 12 -28 23 -3 10 -12 19 -19 19 -9 0 -14 11 -14
30 0 17 4 30 9 30 10 0 -17 61 -31 71 -4 3 -7 24 -5 48 4 47 -4 57 -32 42 -23
-13 -47 10 -37 34 4 10 -1 15 -14 15 -14 0 -18 -5 -13 -16 4 -12 1 -15 -13
-12 -10 2 -18 11 -18 21 1 9 -3 14 -8 11 -15 -10 -28 17 -28 60 0 41 -47 136
-67 136 -11 0 -39 67 -35 83 1 4 -3 7 -8 7 -6 0 -8 -11 -4 -25 5 -22 3 -25
-19 -25 -14 0 -27 -6 -30 -12 -4 -10 -7 -10 -18 0 -10 10 -11 17 -2 31 13 21
10 98 -5 113 -6 6 -13 -12 -21 -54 -7 -39 -17 -68 -28 -75 -10 -7 -23 -17 -30
-23 -7 -5 -16 -10 -21 -10 -5 0 -22 -10 -37 -22 -27 -21 -28 -21 -42 -2 -14
18 -15 18 -27 1 -13 -17 -16 -16 -46 9 -29 25 -30 28 -13 37 28 15 28 16 4 36
l-23 20 36 -6 c24 -4 36 -2 36 6 0 6 -9 11 -20 11 -29 0 -25 29 6 40 22 9 24
13 14 25 -7 8 -19 15 -26 15 -8 0 -14 4 -14 9 0 4 11 6 25 3 18 -3 25 0 25 12
0 9 10 21 23 26 17 7 18 9 5 9 -24 1 -23 11 7 55 25 38 33 76 15 76 -17 0 -11
25 10 40 11 8 20 24 20 35 0 12 9 31 20 43 11 12 20 31 20 42 0 11 9 31 21 43
38 41 71 106 67 132 -3 14 1 30 8 36 8 6 11 15 8 21 -3 5 0 15 6 23 16 20 0
19 -28 -1 -12 -8 -22 -26 -22 -39 0 -18 -7 -26 -25 -31 -15 -4 -28 -16 -31
-29 -5 -21 -7 -22 -32 -9 -34 18 -52 18 -52 0 0 -8 -8 -17 -17 -20 -17 -7 -33
9 -33 32 0 15 -12 15 -29 0 -10 -11 -15 -9 -26 6 -8 10 -12 23 -9 28 3 5 1 15
-5 22 -6 8 -12 27 -12 42 0 16 -2 47 -4 69 -2 22 -4 46 -4 53 -1 9 -8 11 -21
7 -11 -4 -20 -2 -20 4 0 6 5 11 12 11 6 0 3 7 -8 15 -13 10 -14 14 -5 15 10 0
11 3 2 14 -14 16 -5 86 10 86 5 0 2 12 -7 26 -12 17 -18 53 -21 112 -2 47 -7
89 -11 92 -4 3 -9 23 -11 45 -4 49 -16 65 -48 65 -18 0 -24 -4 -19 -15 3 -9 0
-15 -9 -15 -17 0 -55 35 -55 50 0 10 -19 14 -55 12 -24 -2 -60 51 -51 74 3 8
0 14 -8 14 -21 0 -42 30 -28 39 7 4 10 15 7 24 -4 10 1 20 16 28 17 9 24 9 27
0 2 -6 10 -11 17 -11 16 0 27 27 14 35 -5 4 -6 11 -3 17 4 7 9 6 14 -2 15 -24
28 0 25 45 -2 26 -12 56 -24 71 -12 15 -21 31 -21 37 0 6 -10 21 -22 35 -25
26 -32 82 -10 82 18 0 47 -30 47 -49 0 -10 15 -18 45 -24 25 -5 52 -15 60 -21
18 -15 63 -14 83 2 8 7 17 8 23 2 15 -15 141 -15 159 0 12 10 21 10 40 2 15
-7 26 -8 30 -2 4 6 1 10 -4 10 -6 0 -11 7 -11 15 0 8 5 15 10 15 6 0 10 11 10
24 0 22 26 43 38 31 3 -3 2 -5 -3 -5 -4 0 -2 -7 5 -15 18 -21 33 -19 27 4 -3
14 7 31 31 55 36 36 40 63 4 29 -35 -33 -83 -53 -168 -70 -64 -12 -88 -13 -96
-5 -9 9 -5 12 17 12 43 0 106 20 100 30 -3 6 1 7 9 4 32 -12 164 84 150 109
-4 6 -4 9 1 5 11 -11 63 58 76 101 8 29 8 44 -3 71 l-15 35 -21 -65 c-22 -63
-22 -63 -18 -21 3 29 1 40 -4 31 -7 -12 -12 -12 -22 -2 -6 6 -15 12 -19 12
-14 0 -20 -39 -9 -60 11 -20 4 -26 -24 -21 -5 1 -13 -4 -18 -11 -6 -9 -7 -5
-3 10 5 16 2 22 -9 22 -17 0 -19 -11 -10 -59 4 -17 10 -28 15 -25 17 10 9 -16
-11 -36 -31 -31 -40 -24 -40 30 0 71 -14 97 -51 92 -17 -2 -29 -10 -29 -19 0
-8 -6 -13 -12 -10 -9 2 -13 28 -13 78 -1 67 -3 74 -20 74 -17 0 -21 -9 -27
-55 -3 -30 -11 -56 -17 -58 -5 -2 -7 -10 -4 -18 4 -10 -3 -14 -25 -14 -30 0
-30 0 -37 68 -9 92 -9 92 -55 92 l-40 0 0 -40 c0 -35 -3 -40 -24 -40 -24 0
-51 23 -43 37 3 4 1 18 -4 30 -13 34 -47 20 -46 -20 0 -18 -1 -43 -2 -57 -2
-40 -20 -3 -19 41 0 20 -3 46 -7 57 -4 13 -2 22 4 22 6 0 11 5 11 10 0 6 -7
10 -15 10 -8 0 -15 -5 -15 -11 0 -6 -7 -9 -15 -5 -10 4 -15 -1 -16 -17 -1 -21
-1 -21 -9 3 l-8 25 -1 -27 c-1 -15 4 -30 10 -33 6 -4 7 -19 4 -37 -6 -24 -4
-29 6 -23 8 5 11 5 7 1 -10 -12 13 -78 43 -123 33 -47 35 -53 15 -53 -21 0
-74 98 -97 177 -24 86 -26 173 -3 173 11 0 14 -6 9 -20 -3 -11 -4 -20 -1 -20
2 0 12 23 22 52 35 108 75 147 177 174 70 19 236 19 322 -1 39 -8 75 -17 82
-18 7 -2 16 -6 19 -10 4 -4 13 -7 20 -7 19 0 66 -49 58 -61 -3 -6 2 -9 12 -7
13 2 19 -3 18 -15 -2 -13 3 -16 17 -12 23 7 34 -29 26 -81 -4 -20 -2 -32 4
-29 5 4 10 -9 10 -27 1 -18 3 -25 6 -15 4 14 11 17 34 12 25 -6 32 -2 61 39
17 25 35 46 40 46 16 0 20 -51 6 -68 -26 -29 -12 -87 29 -118 54 -41 73 -80
73 -151 0 -43 5 -66 16 -77 19 -19 34 -21 34 -3 0 6 13 32 30 57 16 24 32 57
35 72 4 15 10 28 14 28 10 0 31 62 31 93 0 15 4 35 9 45 20 38 43 100 45 123
2 13 9 68 16 123 15 115 8 236 -14 248 -21 12 -58 76 -51 88 3 5 -3 10 -14 10
-13 0 -18 5 -15 13 3 9 -7 17 -28 24 -18 5 -32 15 -30 21 1 7 -2 12 -8 12 -5
0 -7 6 -4 14 8 22 -8 25 -46 7 -31 -14 -35 -20 -34 -49 1 -18 4 -36 8 -39 3
-3 1 -15 -5 -25 -12 -23 6 -219 22 -228 5 -4 11 -24 13 -46 2 -21 7 -54 11
-72 8 -32 -9 -115 -27 -139 -6 -8 -2 -42 11 -94 12 -46 21 -94 20 -108 0 -26
0 -26 -14 4 -7 17 -31 77 -52 135 -30 83 -38 119 -38 173 l0 69 -40 14 c-22 7
-46 14 -54 14 -40 0 -176 46 -201 66 -15 13 -37 24 -47 24 -11 0 -27 8 -37 18
-17 19 -54 24 -211 25 -104 1 -277 -10 -299 -18 -11 -5 -21 -3 -26 5 -6 9 -9
9 -11 1 -6 -17 -87 -52 -94 -40 -4 5 -17 6 -31 3 -13 -3 -24 -2 -24 3 0 5 -17
7 -37 5 -43 -4 -133 39 -133 64 0 17 -5 17 -30 4 -15 -8 -21 -6 -30 10 -6 11
-15 18 -20 15 -4 -3 -51 -1 -104 5 -190 20 -341 21 -532 5 -104 -9 -205 -19
-224 -23 -38 -8 -47 -27 -49 -100 -1 -32 -17 -72 -68 -167 -38 -68 -71 -124
-75 -125 -19 0 3 84 42 161 16 31 17 37 5 33 -19 -8 -19 7 0 32 20 26 19 34
-5 34 -18 0 -18 3 8 53 l27 52 6 -35 c3 -19 7 -25 8 -14 0 12 9 32 20 45 10
13 21 35 24 49 3 14 17 57 33 95 17 46 28 94 30 140 2 38 8 71 14 73 5 2 10
17 10 33 0 16 5 29 10 29 6 0 10 12 10 26 0 14 4 23 9 19 6 -3 15 5 22 17 7
13 18 27 26 31 10 6 11 12 3 22 -8 9 -6 14 5 19 11 4 14 13 9 32 -6 23 -4 26
10 21 11 -4 19 -1 23 10 3 9 19 28 35 43 15 15 28 31 28 37 0 11 102 103 153
137 21 14 49 29 62 32 14 3 25 10 25 14 0 7 84 27 140 34 14 2 32 6 40 9 20 7
127 18 216 21 38 1 75 5 80 9 6 3 16 2 24 -3 8 -5 21 -5 31 0 9 5 34 10 55 11
21 1 42 4 46 6 18 9 198 9 201 -1 2 -5 12 4 22 22 23 39 28 39 49 7 16 -24 20
-25 86 -20 56 4 71 2 78 -11 5 -9 27 -17 53 -19 73 -7 169 -32 188 -49 10 -9
20 -16 24 -16 9 0 99 -60 127 -86 34 -30 61 -34 74 -9 9 17 15 19 31 10 16 -8
19 -18 17 -53 -3 -46 17 -80 99 -165 53 -54 78 -38 52 33 -4 8 -5 23 -4 32 1
9 -6 19 -16 22 -20 7 -53 67 -53 96 0 13 -7 20 -20 20 -11 0 -20 7 -20 15 0 8
5 15 12 15 9 0 9 3 0 12 -16 16 -15 28 3 28 8 0 15 3 15 6 0 9 -41 42 -73 60
-17 9 -25 19 -20 27 16 25 12 44 -11 57 -16 8 -22 18 -19 28 4 9 2 13 -4 9 -6
-4 -16 0 -23 8 -16 19 -54 19 -73 0 -13 -12 -16 -12 -21 7 -3 12 -8 19 -12 16
-3 -4 -13 0 -22 8 -15 15 -19 94 -6 115 10 16 -7 69 -21 69 -9 0 -12 6 -9 15
5 11 -1 15 -18 15 -24 0 -24 -2 -22 -72 1 -40 5 -94 9 -119 9 -54 -5 -71 -36
-43 -23 21 -25 78 -5 146 12 39 12 49 1 65 -13 17 -15 17 -59 -7 -25 -13 -48
-22 -51 -19 -10 11 6 36 30 49 30 16 24 29 -11 22 -16 -3 -30 1 -36 9 -6 9 -7
0 -3 -28 7 -44 -7 -83 -29 -83 -9 0 -12 14 -11 48 1 26 -4 57 -11 69 -10 17
-11 23 -1 26 9 4 9 6 0 6 -6 1 -20 -7 -29 -16 -16 -17 -17 -17 -11 -1 6 18
-24 35 -42 24 -17 -11 -51 -134 -51 -186 0 -27 -4 -50 -10 -50 -5 0 -10 8 -10
18 0 10 -4 22 -10 28 -5 5 -14 30 -18 56 -9 47 1 81 36 121 14 15 14 17 0 17
-9 0 -23 -10 -31 -22 l-16 -23 0 29 c-1 42 -14 24 -15 -20 -1 -21 -6 -39 -12
-41 -13 -4 -27 77 -18 104 4 12 -3 8 -20 -10 -25 -27 -31 -45 -26 -76 1 -13
-1 -13 -15 -1 -10 8 -12 16 -6 20 6 3 8 17 5 30 -16 63 -15 108 1 134 10 14
13 25 9 24 -5 0 -24 -3 -41 -5z m-273 -183 c0 -11 -28 -70 -33 -70 -1 0 -1 18
1 40 3 26 9 40 18 40 8 0 14 -5 14 -10z m139 -32 c5 -13 5 -25 1 -28 -4 -3
-11 -24 -15 -47 -4 -27 -12 -43 -21 -43 -8 0 -14 -6 -15 -12 0 -10 -2 -10 -6
0 -3 7 2 21 11 31 10 11 18 39 19 70 2 54 12 65 26 29z m88 -5 c4 -9 1 -19 -5
-21 -7 -2 -12 -14 -12 -27 0 -13 -5 -36 -12 -50 -11 -25 -11 -25 -28 22 -19
54 -16 71 14 83 31 13 36 12 43 -7z m-311 -150 c-11 -12 -27 13 -20 32 7 17 8
17 17 -3 6 -12 7 -25 3 -29z m404 -5 l-1 -33 -19 24 c-21 24 -19 41 6 41 9 0
14 -11 14 -32z m-460 -8 c0 -5 -7 -10 -16 -10 -8 0 -12 5 -9 10 3 6 10 10 16
10 5 0 9 -4 9 -10z m-10 -32 c0 -7 -5 -20 -10 -28 -8 -12 -10 -9 -10 13 0 15
5 27 10 27 6 0 10 -6 10 -12z m-752 -400 c-6 -18 -28 -21 -28 -4 0 9 7 16 16
16 9 0 14 -5 12 -12z m-43 -19 c-4 -5 -14 -9 -25 -9 -10 0 -20 -7 -24 -15 -3
-8 -13 -15 -22 -15 -13 0 -14 3 -5 13 6 8 8 17 4 20 -3 4 5 7 20 7 14 0 29 5
32 10 4 6 11 8 16 4 5 -3 7 -10 4 -15z m58 -76 c-22 -8 -14 -22 15 -25 23 -4
24 -5 9 -13 -38 -17 -80 -63 -73 -80 4 -13 2 -16 -9 -11 -10 4 -15 -1 -15 -14
0 -11 -5 -20 -12 -20 -20 0 -67 -51 -61 -67 3 -7 1 -13 -3 -11 -5 2 -20 -7
-34 -19 -13 -13 -27 -23 -30 -23 -13 0 2 52 16 57 8 3 14 16 14 29 0 14 7 27
16 31 8 3 13 12 10 19 -4 9 2 14 16 14 16 0 18 3 9 13 -13 16 -5 27 21 27 19
0 24 15 8 25 -6 4 -2 15 10 27 16 17 22 19 34 9 20 -17 41 -5 26 14 -8 10 -7
14 7 18 24 6 41 7 26 0z m2132 -13 c3 -5 -1 -10 -9 -10 -9 0 -16 5 -16 10 0 6
4 10 9 10 6 0 13 -4 16 -10z m-2127 -90 c-13 -10 -25 -16 -27 -14 -7 7 33 42
42 37 4 -2 -3 -13 -15 -23z m-63 -119 c1 -11 -8 -24 -22 -30 -26 -12 -31 0 -8
19 8 7 15 19 15 28 0 21 13 6 15 -17z m-158 -173 c-3 -8 -6 -5 -6 6 -1 11 2
17 5 13 3 -3 4 -12 1 -19z m-20 -50 c-3 -8 -6 -5 -6 6 -1 11 2 17 5 13 3 -3 4
-12 1 -19z m33 -173 c0 -14 -4 -25 -10 -25 -11 0 -14 33 -3 43 11 11 13 8 13
-18z m-100 -145 c0 -5 -8 -10 -17 -10 -13 0 -14 -3 -5 -12 16 -16 16 -51 0
-46 -7 3 -14 18 -16 35 -2 23 1 33 15 36 10 3 19 5 21 6 1 0 2 -3 2 -9z m2408
-44 c4 -35 -15 -61 -34 -45 -13 10 -11 47 3 72 9 16 28 0 31 -27z m-2318 14
c0 -5 -5 -10 -11 -10 -5 0 -7 5 -4 10 3 6 8 10 11 10 2 0 4 -4 4 -10z m1430
-232 c0 -17 -20 -47 -20 -31 0 6 -3 18 -6 27 -4 11 -1 16 10 16 9 0 16 -6 16
-12z m158 -98 c3 -8 1 -12 -3 -8 -4 4 -14 0 -21 -10 -12 -15 -13 -14 -14 11 0
21 4 28 17 25 9 -2 18 -10 21 -18z m-243 -20 c-4 -12 -9 -19 -12 -17 -3 3 -2
15 2 27 4 12 9 19 12 17 3 -3 2 -15 -2 -27z m379 -77 c-1 -21 -2 -50 -3 -65
-1 -16 -5 -28 -10 -28 -4 0 -6 11 -3 25 6 31 -6 33 -17 3 -7 -18 -9 -11 -9 29
-1 39 3 55 16 63 27 15 29 12 26 -27z m311 7 c0 -18 -16 -22 -35 -10 -13 9
-13 11 0 20 19 12 35 8 35 -10z m-25 -80 c0 -5 -4 -10 -10 -10 -5 0 -10 5 -10
10 0 6 5 10 10 10 6 0 10 -4 10 -10z m-240 -29 c0 -6 -9 -9 -19 -8 -11 0 -17
5 -15 9 7 11 34 10 34 -1z m92 -3 c-9 -9 -15 -9 -24 0 -9 9 -7 12 12 12 19 0
21 -3 12 -12z m73 -18 c3 -5 1 -10 -4 -10 -6 0 -11 5 -11 10 0 6 2 10 4 10 3
0 8 -4 11 -10z m-157 -11 c-17 -7 -38 -7 -60 0 -30 8 -28 9 27 9 50 0 56 -1
33 -9z m119 5 c-3 -3 -12 -4 -19 -1 -8 3 -5 6 6 6 11 1 17 -2 13 -5z m-273
-13 c3 -4 26 -14 51 -21 46 -13 53 -37 7 -25 -50 12 -93 35 -87 45 8 12 22 13
29 1z m-549 -231 c3 -5 1 -10 -4 -10 -6 0 -11 5 -11 10 0 6 2 10 4 10 3 0 8
-4 11 -10z m-58 -52 c-3 -7 -5 -2 -5 12 0 14 2 19 5 13 2 -7 2 -19 0 -25z
m-165 -8 c-2 -10 0 -11 10 -2 11 9 14 7 15 -9 1 -11 -5 -23 -13 -26 -8 -3 -14
-14 -14 -24 0 -10 -6 -19 -13 -19 -8 0 -20 -12 -28 -26 -14 -27 -54 -49 -70
-38 -6 3 -15 1 -22 -4 -7 -5 -20 -7 -30 -3 -16 6 -15 10 8 43 14 21 34 42 45
48 11 6 20 15 20 20 0 6 9 19 19 29 30 30 79 37 73 11z m278 -322 c0 -6 -9 -8
-20 -5 -11 3 -20 1 -20 -5 0 -12 -30 -6 -33 7 -1 5 12 12 28 16 33 6 45 3 45
-13z m-90 -154 c0 -7 -10 -14 -22 -16 -16 -2 -24 -11 -26 -30 -2 -21 -11 -30
-38 -38 -19 -6 -34 -15 -34 -19 0 -4 -6 -16 -14 -26 -12 -16 -16 -17 -30 -6
-10 9 -16 9 -16 3 0 -6 -6 -9 -14 -6 -20 8 -36 -26 -36 -75 0 -30 6 -44 22
-55 17 -12 24 -13 30 -3 6 9 10 9 17 -2 5 -8 16 -11 27 -7 27 10 84 -12 84
-34 0 -19 -36 -47 -54 -42 -5 2 -6 -4 -3 -12 4 -9 0 -19 -7 -23 -7 -5 -18 -18
-24 -29 -12 -23 -49 -38 -58 -23 -9 16 -35 10 -32 -7 5 -28 -37 -36 -67 -12
-14 11 -32 18 -39 15 -9 -4 -12 0 -9 12 3 13 -1 18 -19 17 -13 -1 -23 5 -23
13 0 8 -7 17 -15 20 -8 3 -16 21 -18 41 -1 19 -7 39 -12 44 -13 13 -13 56 0
56 6 0 9 19 9 43 -1 23 -3 34 -6 24 -6 -23 -28 -17 -28 8 0 13 8 19 29 20 16
0 31 6 34 13 4 12 52 17 52 6 0 -4 -8 -13 -17 -21 -17 -13 -17 -14 2 -11 14 3
20 11 20 30 -1 24 3 26 22 22 14 -4 23 -2 23 5 0 6 -7 11 -15 11 -22 0 -18 17
5 23 13 3 20 14 20 30 0 32 11 39 69 44 25 2 50 8 56 13 27 22 155 9 155 -16z
m108 -3 c6 -1 12 -8 12 -16 0 -11 -12 -15 -47 -14 -36 0 -43 3 -28 9 16 7 17
9 3 9 -9 1 -19 5 -22 9 -3 5 11 8 32 6 20 -2 43 -3 50 -3z m52 -11 c0 -5 15
-10 34 -10 54 0 50 -15 -5 -17 -43 -2 -49 0 -49 17 0 11 5 20 10 20 6 0 10 -4
10 -10z m140 -47 c0 -15 2 -14 14 3 14 18 15 18 13 -3 -1 -13 -5 -23 -9 -23
-4 0 -2 -11 4 -25 12 -26 43 -34 51 -12 4 9 6 9 6 0 1 -6 -3 -15 -9 -18 -18
-11 -10 -26 13 -23 12 1 22 -2 22 -7 0 -9 -54 -8 -87 1 -10 3 -18 1 -18 -4 0
-6 -9 -8 -20 -5 -16 4 -18 9 -9 24 10 20 3 60 -13 70 -10 7 17 39 33 39 5 0 9
-8 9 -17z m-80 -32 c11 -21 4 -51 -12 -51 -6 0 -7 11 -4 27 5 17 3 29 -6 34
-9 6 -10 9 -1 9 7 0 17 -9 23 -19z m230 -153 c9 -3 3 -8 -17 -16 -25 -8 -34
-8 -44 4 -9 11 -7 14 11 14 17 0 21 4 16 18 -5 15 -5 15 6 1 7 -9 20 -18 28
-21z m24 -94 c-4 -56 -15 -108 -24 -114 -6 -4 -10 -13 -8 -20 2 -9 -12 -16
-41 -21 -24 -5 -49 -13 -56 -19 -10 -8 -18 -4 -33 15 -15 19 -29 25 -58 25
-28 0 -35 -3 -24 -10 11 -7 9 -11 -13 -19 -32 -12 -27 -35 5 -25 18 5 19 4 8
-8 -14 -15 -70 -12 -70 4 0 19 -37 48 -54 42 -13 -5 -15 -2 -9 12 13 37 46 46
41 12 -4 -27 44 -50 64 -30 9 9 6 12 -14 12 -48 0 -46 71 3 92 28 13 39 28 19
28 -5 0 -10 5 -10 10 0 16 19 11 41 -11 17 -17 23 -18 29 -8 5 7 30 14 56 16
38 2 53 -2 70 -18 l22 -20 21 22 c22 24 28 49 11 49 -5 0 -10 -4 -10 -10 0
-15 -29 -12 -45 4 -10 9 -11 16 -3 24 17 17 83 -11 82 -34z m-521 -41 c-7 -2
-19 -2 -25 0 -7 3 -2 5 12 5 14 0 19 -2 13 -5z m166 -32 c-15 -5 -22 6 -14 19
6 9 10 9 16 -1 5 -8 4 -15 -2 -18z m178 -193 c-3 -7 -5 -2 -5 12 0 14 2 19 5
13 2 -7 2 -19 0 -25z m-1028 -332 c-13 -14 -33 9 -25 30 6 16 8 16 21 -2 8
-12 10 -23 4 -28z m-312 -3 c-3 -3 -11 -2 -17 2 -8 5 -7 11 2 22 12 15 13 14
16 -1 2 -10 1 -20 -1 -23z m313 -53 c0 -5 -7 -7 -15 -4 -8 4 -15 8 -15 10 0 2
7 4 15 4 8 0 15 -4 15 -10z m1840 -210 c-13 -8 -12 -10 4 -10 11 0 17 -3 13
-6 -3 -4 -13 -4 -22 0 -18 6 -11 26 8 26 7 0 6 -4 -3 -10z m54 -45 c10 -8 16
-21 13 -29 -4 -9 -2 -18 3 -21 6 -4 10 -13 10 -21 0 -8 -3 -13 -8 -10 -4 2
-12 -7 -19 -20 -11 -23 -1 -35 12 -14 4 6 11 8 16 5 5 -3 1 -18 -8 -32 -9 -14
-18 -35 -18 -46 -1 -11 -9 -25 -18 -32 -10 -7 -17 -17 -17 -24 0 -6 -4 -11 -9
-11 -12 0 -21 52 -11 65 13 18 20 64 10 70 -17 11 -11 37 10 42 26 7 26 23 1
23 -11 0 -23 5 -26 10 -3 6 -1 10 5 10 6 0 8 5 5 10 -4 6 -11 8 -16 5 -5 -3
-6 1 -3 9 5 13 19 20 44 25 3 0 13 -6 24 -14z m-979 -155 c-5 -8 -11 -8 -17
-2 -6 6 -7 16 -3 22 5 8 11 8 17 2 6 -6 7 -16 3 -22z m861 -37 c-10 -10 -19 5
-10 18 6 11 8 11 12 0 2 -7 1 -15 -2 -18z m-3001 -33 c-11 -5 -27 -9 -35 -9
-9 0 -8 4 5 9 11 5 27 9 35 9 9 0 8 -4 -5 -9z m3305 -4 c0 -3 -4 -8 -10 -11
-5 -3 -10 -1 -10 4 0 6 5 11 10 11 6 0 10 -2 10 -4z m-69 -23 c0 -5 2 -18 5
-30 4 -24 -2 -28 -25 -14 -8 5 -11 16 -6 30 6 20 24 29 26 14z m74 -122 c7
-12 -12 -24 -25 -16 -11 7 -4 25 10 25 5 0 11 -4 15 -9z"/>
<path d="M3296 2615 c-3 -8 -1 -15 4 -15 6 0 10 7 10 15 0 8 -2 15 -4 15 -2 0
-6 -7 -10 -15z"/>
<path d="M2382 1560 c0 -14 2 -19 5 -12 2 6 2 18 0 25 -3 6 -5 1 -5 -13z"/>
<path d="M2266 1385 c-3 -8 -1 -15 4 -15 6 0 10 7 10 15 0 8 -2 15 -4 15 -2 0
-6 -7 -10 -15z"/>
<path d="M2997 1336 c-6 -15 1 -26 15 -26 4 0 8 9 8 20 0 23 -15 27 -23 6z"/>
<path d="M2815 1291 c-3 -5 -1 -12 5 -16 5 -3 10 1 10 9 0 18 -6 21 -15 7z"/>
<path d="M3070 4745 c7 -8 16 -15 21 -15 5 0 9 7 9 15 0 9 -9 15 -21 15 -18 0
-19 -2 -9 -15z"/>
<path d="M2560 4714 c0 -8 5 -12 10 -9 6 3 10 10 10 16 0 5 -4 9 -10 9 -5 0
-10 -7 -10 -16z"/>
<path d="M2640 4699 c0 -5 5 -7 10 -4 6 3 10 8 10 11 0 2 -4 4 -10 4 -5 0 -10
-5 -10 -11z"/>
<path d="M2730 4695 c-7 -9 -11 -18 -8 -20 3 -3 11 1 18 10 7 9 11 18 8 20 -3
3 -11 -1 -18 -10z"/>
<path d="M2535 4690 c3 -5 8 -10 11 -10 2 0 4 5 4 10 0 6 -5 10 -11 10 -5 0
-7 -4 -4 -10z"/>
<path d="M3065 4690 c-3 -5 -1 -10 4 -10 6 0 11 5 11 10 0 6 -2 10 -4 10 -3 0
-8 -4 -11 -10z"/>
<path d="M2662 4670 c-14 -23 -16 -50 -4 -50 9 0 32 44 32 60 0 17 -15 11 -28
-10z"/>
<path d="M2180 4649 c0 -5 5 -7 10 -4 6 3 10 8 10 11 0 2 -4 4 -10 4 -5 0 -10
-5 -10 -11z"/>
<path d="M3145 4650 c-3 -5 3 -10 14 -10 12 0 21 5 21 10 0 6 -6 10 -14 10 -8
0 -18 -4 -21 -10z"/>
<path d="M2276 4631 c-4 -7 -5 -15 -2 -18 9 -9 19 4 14 18 -4 11 -6 11 -12 0z"/>
<path d="M2352 4620 c0 -14 2 -19 5 -12 2 6 2 18 0 25 -3 6 -5 1 -5 -13z"/>
<path d="M2158 4563 l-16 -38 -10 35 c-7 24 -10 28 -11 13 -1 -12 -5 -25 -11
-28 -16 -10 -12 -35 11 -72 24 -38 39 -31 39 18 0 14 5 30 10 35 12 12 22 74
12 74 -4 0 -15 -17 -24 -37z"/>
<path d="M2301 4588 c0 -9 -4 -25 -7 -35 -5 -14 -4 -15 5 -7 7 7 11 22 8 35
-2 13 -5 16 -6 7z"/>
<path d="M3430 4580 c0 -5 5 -10 10 -10 6 0 10 5 10 10 0 6 -4 10 -10 10 -5 0
-10 -4 -10 -10z"/>
<path d="M2232 4550 c0 -19 2 -27 5 -17 2 9 2 25 0 35 -3 9 -5 1 -5 -18z"/>
<path d="M3624 4455 c-4 -8 -1 -22 5 -29 8 -10 9 -16 1 -21 -13 -8 -13 -55 0
-55 6 0 10 4 10 9 0 5 19 7 42 4 48 -7 46 9 -5 32 -31 14 -30 14 36 11 49 -3
67 0 67 9 0 15 -14 21 -88 41 -65 17 -61 17 -68 -1z"/>
<path d="M3732 4375 c4 -4 0 -14 -10 -21 -16 -12 -15 -13 6 -14 24 0 30 24 10
36 -7 4 -10 4 -6 -1z"/>
<path d="M1860 4300 c0 -13 11 -13 30 0 12 8 11 10 -7 10 -13 0 -23 -4 -23
-10z"/>
<path d="M1806 4223 c9 -35 7 -34 24 -23 11 7 12 14 4 27 -19 30 -36 28 -28
-4z"/>
<path d="M1700 4111 c0 -5 7 -14 15 -21 13 -10 15 -9 15 9 0 12 -6 21 -15 21
-8 0 -15 -4 -15 -9z"/>
<path d="M3890 4070 c0 -5 5 -10 10 -10 6 0 10 5 10 10 0 6 -4 10 -10 10 -5 0
-10 -4 -10 -10z"/>
<path d="M1441 3596 c-13 -55 -14 -73 -2 -60 9 10 25 104 18 104 -3 0 -10 -20
-16 -44z"/>
<path d="M4091 3581 c-9 -16 -6 -23 18 -40 15 -11 31 -18 34 -15 3 3 3 -4 0
-16 -5 -18 -2 -20 20 -15 20 5 26 2 32 -14 3 -11 4 -24 1 -29 -2 -4 4 -13 15
-20 15 -10 19 -10 19 2 0 8 -5 18 -10 21 -6 4 -8 11 -5 16 4 5 1 9 -4 9 -6 0
-11 6 -11 14 0 22 -40 66 -61 66 -10 0 -19 6 -19 14 0 24 -18 28 -29 7z"/>
<path d="M3031 2954 c0 -11 3 -14 6 -6 3 7 2 16 -1 19 -3 4 -6 -2 -5 -13z"/>
<path d="M2308 2953 c6 -2 18 -2 25 0 6 3 1 5 -13 5 -14 0 -19 -2 -12 -5z"/>
<path d="M2277 2923 c-4 -3 -7 -30 -7 -60 0 -29 -4 -53 -10 -53 -5 0 -10 5
-10 12 0 9 -3 9 -12 0 -7 -7 -20 -12 -29 -12 -20 0 -29 -28 -29 -91 0 -44 -2
-47 -25 -45 -24 1 -30 11 -27 49 1 9 -5 17 -13 17 -8 0 -15 -8 -15 -18 0 -14
-8 -19 -30 -19 -16 0 -38 -7 -49 -17 -17 -15 -19 -15 -25 -1 -3 9 -10 14 -15
10 -12 -7 -52 26 -45 37 3 5 11 5 17 1 7 -4 6 0 -2 10 -19 24 -31 21 -31 -7 0
-16 18 -40 55 -74 70 -64 157 -96 243 -89 75 6 148 25 186 48 26 16 30 23 27
57 -2 33 1 40 19 45 18 5 20 9 10 26 -6 13 -21 21 -35 21 -16 0 -25 6 -25 15
0 8 -5 15 -10 15 -7 0 -8 22 -5 59 l5 58 -37 7 c-49 8 -68 8 -76 -1z m-127
-283 c0 -5 -5 -10 -11 -10 -5 0 -7 5 -4 10 3 6 8 10 11 10 2 0 4 -4 4 -10z
m230 -20 c0 -13 -20 -13 -40 0 -12 8 -9 10 13 10 15 0 27 -4 27 -10z m-127
-27 c-7 -2 -19 -2 -25 0 -7 3 -2 5 12 5 14 0 19 -2 13 -5z"/>
<path d="M2474 2915 c-7 -17 4 -37 17 -30 12 8 12 45 -1 45 -6 0 -13 -7 -16
-15z"/>
<path d="M2538 2888 c4 -28 6 -30 13 -13 11 30 10 10 -2 -41 -8 -29 -17 -44
-28 -44 -9 0 -21 -11 -27 -25 -10 -20 -9 -27 7 -41 11 -9 19 -12 19 -6 0 6 -8
16 -17 21 -10 6 -13 10 -8 11 6 0 17 -4 25 -9 18 -12 42 20 34 46 -5 14 -4 15
4 4 9 -12 13 -10 23 13 11 23 10 29 -2 38 -12 8 -11 9 2 5 10 -3 20 3 27 16
19 40 20 54 6 54 -8 0 -14 -7 -14 -16 -1 -13 -4 -12 -16 4 -13 17 -16 18 -24
5 -7 -10 -10 -11 -10 -2 0 6 -4 12 -8 12 -5 0 -6 -15 -4 -32z"/>
<path d="M2467 2864 c-4 -4 -7 -25 -7 -46 0 -45 17 -48 37 -7 8 14 20 23 30
21 14 -3 15 -1 4 12 -12 15 -15 15 -27 -1 -12 -17 -13 -16 -21 5 -5 13 -12 20
-16 16z"/>
<path d="M3490 2800 c-12 -23 -6 -40 14 -40 8 0 16 14 18 30 5 35 -15 41 -32
10z"/>
<path d="M2152 2730 c0 -19 2 -27 5 -17 2 9 2 25 0 35 -3 9 -5 1 -5 -18z"/>
<path d="M2460 2694 c-17 -43 -11 -50 16 -22 15 14 23 31 20 37 -12 18 -26 12
-36 -15z m30 6 c0 -5 -4 -10 -10 -10 -5 0 -10 5 -10 10 0 6 5 10 10 10 6 0 10
-4 10 -10z"/>
<path d="M3762 2665 c-14 -31 -15 -35 -3 -35 8 0 23 51 17 58 -2 1 -8 -9 -14
-23z"/>
<path d="M1401 2614 c1 -41 2 -45 9 -22 4 14 11 31 14 36 3 5 -1 15 -9 22 -13
11 -15 6 -14 -36z"/>
<path d="M3727 2606 c-4 -10 -1 -13 8 -9 8 3 12 9 9 14 -7 12 -11 11 -17 -5z"/>
<path d="M3680 2541 c0 -6 4 -13 10 -16 6 -3 7 1 4 9 -7 18 -14 21 -14 7z"/>
<path d="M1500 2446 c0 -2 7 -6 15 -10 8 -3 15 -1 15 4 0 6 -7 10 -15 10 -8 0
-15 -2 -15 -4z"/>
<path d="M4117 2413 c-7 -11 0 -133 7 -141 3 -3 6 4 6 15 0 11 7 34 16 51 19
38 15 76 -8 80 -9 2 -18 -1 -21 -5z m20 -45 c-3 -7 -5 -2 -5 12 0 14 2 19 5
13 2 -7 2 -19 0 -25z"/>
<path d="M2925 2370 c-3 -5 -1 -10 4 -10 6 0 11 5 11 10 0 6 -2 10 -4 10 -3 0
-8 -4 -11 -10z"/>
<path d="M3108 2353 c7 -3 16 -2 19 1 4 3 -2 6 -13 5 -11 0 -14 -3 -6 -6z"/>
<path d="M4000 2229 c0 -11 4 -18 10 -14 5 3 7 12 3 20 -7 21 -13 19 -13 -6z"/>
<path d="M4000 2161 c0 -11 -4 -22 -9 -25 -5 -3 -7 -27 -5 -53 2 -27 1 -40 -2
-30 -4 14 -9 15 -19 7 -16 -13 -9 -39 14 -57 21 -17 31 -16 31 2 0 7 6 18 13
22 34 22 42 99 8 90 -14 -3 -16 1 -13 23 2 15 -1 31 -7 34 -7 4 -11 -1 -11
-13z m40 -85 c0 -3 -4 -8 -10 -11 -5 -3 -10 -1 -10 4 0 6 5 11 10 11 6 0 10
-2 10 -4z"/>
<path d="M3100 2125 c0 -20 22 -65 32 -65 15 0 8 33 -9 46 -17 12 -16 13 7 14
20 0 22 2 10 10 -22 14 -40 12 -40 -5z"/>
<path d="M3165 2030 c3 -5 8 -10 11 -10 2 0 4 5 4 10 0 6 -5 10 -11 10 -5 0
-7 -4 -4 -10z"/>
<path d="M3922 1956 c7 -8 15 -12 17 -11 5 6 -10 25 -20 25 -5 0 -4 -6 3 -14z"/>
<path d="M3208 1943 c6 -2 18 -2 25 0 6 3 1 5 -13 5 -14 0 -19 -2 -12 -5z"/>
<path d="M1640 1530 c0 -5 5 -10 11 -10 5 0 7 5 4 10 -3 6 -8 10 -11 10 -2 0
-4 -4 -4 -10z"/>
<path d="M1810 930 c0 -5 5 -10 10 -10 6 0 10 5 10 10 0 6 -4 10 -10 10 -5 0
-10 -4 -10 -10z"/>
<path d="M3680 706 c0 -2 8 -10 18 -17 15 -13 16 -12 3 4 -13 16 -21 21 -21
13z"/>
<path d="M3731 634 c0 -11 3 -14 6 -6 3 7 2 16 -1 19 -3 4 -6 -2 -5 -13z"/>
<path d="M4030 260 c0 -5 5 -10 11 -10 5 0 7 5 4 10 -3 6 -8 10 -11 10 -2 0
-4 -4 -4 -10z"/>
<path d="M4060 237 c0 -8 -8 -18 -17 -20 -17 -4 -17 -5 0 -6 18 -1 35 25 23
36 -3 4 -6 -1 -6 -10z"/>
<path d="M4080 201 c0 -6 5 -13 11 -16 6 -5 4 -12 -8 -21 -12 -9 -14 -13 -4
-14 8 0 11 -6 7 -15 -7 -20 24 -57 38 -45 13 10 51 -14 43 -27 -3 -4 6 -9 19
-9 20 -2 21 0 9 13 -8 8 -15 20 -15 28 0 7 -7 15 -15 19 -8 3 -12 12 -9 20 4
11 -3 19 -21 26 -15 6 -29 19 -32 30 -5 20 -23 28 -23 11z"/>
<path d="M4061 184 c0 -11 3 -14 6 -6 3 7 2 16 -1 19 -3 4 -6 -2 -5 -13z"/>
<path d="M14 34 c-18 -14 -18 -14 6 -3 31 14 36 19 24 19 -6 0 -19 -7 -30 -16z"/>
</g>
</svg>
